M48
;Layer_Color=9474304
;FILE_FORMAT=4:4
METRIC,LZ
;TYPE=PLATED
T1F00S00C0.3000
T2F00S00C0.5000
T3F00S00C0.7112
T4F00S00C0.8000
T5F00S00C0.9000
T6F00S00C1.0000
T7F00S00C1.2000
;TYPE=NON_PLATED
T8F00S00C3.2000
%
T01
X0067275Y00382
Y00393
T02
X00726Y0007725
X00757Y000825
X009725Y00115
X0100375Y0011325
X017935Y00181
X01781Y002201
X01931655Y00143
X019325Y00495
X0159175Y003895
X01536Y0028
X015965Y0019575
X01648Y00244
X01434875Y002225
X0102875Y00214
X009945Y0020375
X00995Y00185
X00991297Y00171297
X0103Y001675
X01024Y001335
X0093275Y0015025
X00905Y001725
X0092Y001975
X0092371Y0022946
X009385Y0025725
X00943546Y00289014
X00949046Y00302015
X00920795Y00306765
X00918795Y00319516
X00906Y00293844
X00910294Y00275763
X00894044Y00277264
X0089125Y0025275
X009725Y0028
X01019998Y00297499
X010425Y00349
X01037801Y00393019
X010505Y003925
X01055051Y00426021
X01067Y00432
X0104Y0044054
X01027
X010065Y0044375
X0099396Y0043996
X00999049Y00421771
X0101625Y004565
X0099Y00469
X0098375Y0048425
X00948998Y00487999
X00952998Y00474999
X0095346Y00502111
X00935998Y00449999
X00936243Y0043697
X00911Y00444
X00911998Y00456999
X00954047Y00362768
X0097225Y00358
X00944Y003445
X01014892Y00379142
X011025Y003825
X0109425Y00449
X01096Y00472
X0111225Y0051175
X01156Y0050825
X0118525Y0047625
X0118825Y0043125
X010015Y0023325
X00984892Y00222892
X008745Y001955
X0085125Y00218
X008045Y002215
X00783892Y00276108
X0078025Y00299375
X007905Y0031875
X00786094Y00344906
X0077376Y00336544
X0080575Y0034175
X008035Y00362
X00839249Y00347197
X00851998Y00351999
X0085Y003775
X0083925Y0038475
X008575Y003925
X0086696Y00405325
X00810034Y0040804
X00793Y00408
X007795Y0043425
X007425Y0044175
X0071225Y004355
X00684035Y00489465
Y0050225
X0063525Y00494
X005835Y0045825
X0057297Y00444
X00542562Y00493812
X00556931Y00353331
X0056747Y00338857
X00565Y0031
X00563Y00292
X00560999Y00274
X0056Y00259
X0056225Y0020475
X0065675Y0020525
X0066Y00245
X00642Y00256
X00627Y00275
X00653Y0029675
X0071Y003
X007205Y00328
X00748395Y00304415
X007345Y00252
X00721785Y00255263
X00694284Y00181009
X0066475Y0016825
X0073854Y00138634
X00768Y001475
X007685Y00168
X0077725Y0012675
X00887793Y00265513
X008235Y0033025
X00772875Y00385125
X00764008Y00376258
X0076975Y00483465
X00783Y00477
X00789998Y00488999
X00831Y00494
X00832291Y00475023
X0083075Y0046225
X00846813Y0044675
X008505Y0047675
X00863Y00467
X00877543Y00499024
X0088075Y00511735
X00745197Y00491553
X006195Y0037625
X0060425Y003725
X00598731Y00355495
X00522Y00287
X00521Y0015075
X0047425Y0025525
X004605Y00309
X00444Y00293
X0047025Y00361
X004895Y004345
X0045Y0049475
X003615Y0049625
X0033125Y00485
X00345Y00571
X0029Y0054846
X0026Y0056
Y0059
X00248Y0064275
X0028675Y006625
X00292Y007
X0027
X00315Y00699
X0033Y007
X0035
X0037
X004375Y00734
X00447Y0062
X00313
X0026Y0051846
X001625Y00525
X0018625Y0070075
X001875Y0075
X0021275Y00822
X0028775Y0078325
X00314Y0078925
X0033875Y00795
X0038Y0082
X003512Y00880218
X003258Y00880618
X00288275Y00880775
X005125Y0088
X00551
X00576
X0060625Y008315
X00563Y0079175
X00539Y00789
X00513Y00781
X0052Y007
X005
X0056
X0058
X006
X0059175Y00644
X00577512Y00622575
X006425Y00618
X006585Y0054075
X00676904Y0053804
X00671093Y0051525
X00581Y005175
X0055725Y0052825
X0054475Y0053825
X00545Y006845
X0072Y007
X0078
X0082
X0083275Y00698
X00805Y0066025
X0078725Y0064875
X00767Y00644
X0074725Y0063375
X00744Y00615
X00762Y0057
X00774998Y00571999
X007915Y0059325
X0080225Y005825
X008315Y0059525
X0084Y0061225
X00824767Y0061954
X0086725Y00632
X0087675Y0055275
X0087325Y0053075
X00865042Y00520775
X00844791Y00522276
X00835541Y00513775
X0083775Y0053375
X00847Y0054279
X00848Y00561
X0079475Y0078875
X00762584Y00789505
X00736334Y00783505
X0073775Y00881
X007755Y0088075
X00801Y0088125
X008365Y0083225
X00963Y008815
X010015Y00881
X01026Y008815
X0105275Y0082475
X01014Y0079375
X0098925Y00788
X00963Y00782
X0097Y007
X00950267Y00700267
X0101204Y007
X01056Y00711
X01097Y00692
X0114Y007
X0118
X012
X0122
X0124
X01238Y0079175
X0121325Y00786
X01187Y0078
X01188Y0088
X01226Y00881
X01251
X0127975Y0082425
X0117Y00616
X01143Y00626
X011255Y0059175
X0115454Y00583171
X0118004Y005625
X01119685Y00551897
X0111704Y00536467
X01093Y0053025
X01101304Y00518775
X01060678Y0052368
X0104Y00594
X0100425Y00613
X0100225Y0064775
X00983Y00638
X009765Y0058
X00985048Y00570528
X00945834Y00561107
X00933294Y00561277
X00924254Y00551094
X00915Y00559573
X00919Y0053475
X00924254Y005215
X00953462Y00519177
X009525Y00535
X0095004Y00591934
X00916Y00608
X0090196Y00600695
X0089604Y0061175
X0137Y007
X0139
X0145Y00703
X0143925Y00791
X01464Y00795
X01412Y00785
X0143625Y00841
X0149275Y008285
X0147675Y008815
X0158575Y009085
X01622Y0086025
X01648Y00868
X0158375Y007735
X016275Y0066
X01555Y006175
X0159775Y005435
X017845Y0057055
X01809Y00787
X01893
X0190354Y00803
X01794875Y00903243
X01734Y00903
X0173025Y0098125
X018885Y01028
X0159325Y009285
X0153304Y0094
X0149554
X0145804
X0142054
X0138304Y0094
X0134554
X0130804
X013225Y009125
X0136
X013975
X01435
X014725
X0151
X01285
X012475
X0121
X011725
X01135
X010975
X0106
X010225
X00985
X009475
X0091
X0089554Y0094
X0093304
X0097054
X0100804
X0104944
X0108304
X0112054
X0115804
X0119554
X0123304
X0127354
X0085804
X0082444
X00835Y009125
X008725
X007975
X0076
X007225
X00685
X006475
X0061
X005725
X00535
X004975
X0052054Y0094
X0055804
X0059944
X0063304
X0067054
X0070804
X0074554
X0078304
X0048304
X0044554
X0040804
X0037444
X00385Y009125
X004225
X0046
X003475
X0031
X002725
X0029554Y0094
X0033304
T03
X01927Y00855
T04
X01171Y00027
Y00047
X0141Y0005
Y0007
X0015Y004675
Y004875
X0008Y0066
X0006
T05
X017208Y00144
Y00166
Y00188
Y0022
Y00324
Y00346
Y00368
Y004
Y00484
Y00506
X0186
Y00484
X019108
Y00506
Y0022
Y00188
Y00166
Y00144
X0186
Y00166
Y00188
Y0022
X0167
Y00188
Y00166
Y00144
Y00324
Y00346
Y00368
Y004
Y00484
Y00506
Y00528
Y0056
Y00684
Y00706
Y00728
Y0076
Y00844
Y00866
Y00888
X017208
Y00866
Y00844
Y0076
Y00728
Y00706
Y00684
Y0056
Y00528
X0186
Y0056
X019108
Y00528
Y00844
Y00866
Y00888
X0186
Y00866
Y00844
Y0092
X019108
X017208
X0167
T06
X0039Y0006
X004154
X004408
X004662
X004916
Y000854
X004662
X004408
X004154
X0039
X00517
Y0006
X005424
X005678
X005932
X006186
Y000854
X005932
X005678
X005424
X01489Y00095
Y000705
X0197Y00105
Y0013
Y00155
Y0018
Y00205
Y0023
Y00465
Y0049
X0006Y0073
X000355
X0197Y00825
Y0085
Y00875
Y009
Y0059
Y00565
Y0054
Y00515
Y00925
Y0095
X01585Y0105
X0156
X01535
X0151
X01485
X0146
X0136
X01335
X0131
X01285
X0126
X01235
X01135
X0111
X01085
X0106
X01035
X0101
X0091
X00885
X0086
X00835
X0081
X00785
X00685
X0066
X00635
X0061
X00585
X0056
X0046
X00435
X0041
X00385
X0036
X00335
T07
X0078Y0006
X008054
X008308
X008562
X008816
Y000854
X008562
X008308
X008054
X0078
X00907
X009324
Y0006
X00907
T08
X0023Y00067
X0177
Y01053
X0023
M30
